<?xml version="1.0" encoding="UTF-8" standalone="no"?>
<svg width="1200px" height="400px" viewBox="0 0 1200 400" version="1.1" xmlns="http://www.w3.org/2000/svg" xmlns:xlink="http://www.w3.org/1999/xlink" xmlns:sketch="http://www.bohemiancoding.com/sketch/ns">
    <title>Artboard 1</title>
    <description>Created with Sketch (http://www.bohemiancoding.com/sketch)</description>
    <defs></defs>
    <g id="Page 1" stroke="none" stroke-width="1" fill="none" fill-rule="evenodd">
        <g id="Artboard 1">
            <path d="M589.801575,282.960213 C106.537048,282.960206 -9,347 -9,347 L-9,413 L1208,413 L1208,347 C1208,347 1073.0661,282.960221 589.801575,282.960213 Z M589.801575,282.960213" id="Rectangle 1" fill="#4A4A4A"></path>
            <path d="M199.403333,221 C194.984821,221 191.402909,224.585336 191.402909,229.003769 L191.402909,314.996231 C191.402909,319.416591 194.986973,323 199.403333,323 L251.402484,323 C255.820997,323 259.402909,319.414664 259.402909,314.996231 L259.402909,229.003769 C259.402909,224.583409 255.818845,221 251.402484,221 L199.403333,221 Z M199.403333,221" id="Rectangle 2" fill="#4A4A4A" transform="translate(225.402909, 272.000000) rotate(-7.000000) translate(-225.402909, -272.000000) "></path>
            <path d="M651.784932,196.93277 L687.465128,219.462398 L673.836506,306.459593 L629.733357,306.459593 L616.104735,219.462398 L651.784932,196.93277 Z M651.784932,196.93277" id="Polygon 1" fill="#4A4A4A" transform="translate(651.784932, 251.696181) rotate(-352.000000) translate(-651.784932, -251.696181) "></path>
            <path d="M365.076407,199.181596 C365.076407,199.181596 390.868049,201.848746 397.502847,234.802785 C404.137645,267.756824 387.127982,308.708418 387.127982,308.708418 L343.024833,308.708418 C343.024833,308.708418 324.59583,252.023139 331.59953,225.553198 C338.603229,199.083258 365.076407,199.181596 365.076407,199.181596 Z M365.076407,199.181596" id="Polygon 1" fill="#4A4A4A" transform="translate(364.525010, 253.945006) rotate(-7.000000) translate(-364.525010, -253.945006) "></path>
            <path d="M900.076407,212.438626 C900.076407,212.438626 925.868049,215.105776 932.502847,248.059816 C939.137645,281.013855 922.127982,321.965449 922.127982,321.965449 L878.024833,321.965449 C878.024833,321.965449 859.59583,265.280169 866.59953,238.810229 C873.603229,212.340288 900.076407,212.438626 900.076407,212.438626 Z M900.076407,212.438626" id="Polygon 1" fill="#4A4A4A" transform="translate(899.525010, 267.202036) scale(-1, 1) rotate(-7.000000) translate(-899.525010, -267.202036) "></path>
            <path d="M350.5,169.5 L359.5,215.5" id="Line" stroke="#4A4A4A" stroke-width="10" stroke-linecap="square"></path>
            <path d="M351.938564,167.303657 L357.009335,197.33275" id="Line" stroke="#4A4A4A" stroke-width="10" stroke-linecap="square" transform="translate(354.009335, 182.332750) rotate(-271.000000) translate(-354.009335, -182.332750) "></path>
            <path d="M785.5,194.5 L771.5,298.5" id="Line" stroke="#4A4A4A" stroke-width="20" stroke-linecap="square"></path>
            <path d="M786.336943,189.050969 L778.055327,253.575244" id="Line" stroke="#4A4A4A" stroke-width="20" stroke-linecap="square" transform="translate(782.055327, 221.075244) rotate(-269.000000) translate(-782.055327, -221.075244) "></path>
            <path d="M1147.5,50.5 L1133.5,154.5" id="Line" stroke="#4A4A4A" stroke-width="15" stroke-linecap="square"></path>
            <path d="M1147.81206,48.8800345 L1142.5,87.8485912" id="Line" stroke="#4A4A4A" stroke-width="15" stroke-linecap="square" transform="translate(1145.000000, 68.348591) rotate(-269.000000) translate(-1145.000000, -68.348591) "></path>
            <path d="M1118.03945,104.280711 C1118.03945,104.280711 1263.40423,110.759774 1287.74196,170.437381 C1312.07969,230.114988 1221.3968,357.719289 1221.3968,357.719289 L1060.93143,357.719289 L1039.96675,194.739561 C1039.96675,194.739561 1021.90835,192.952611 1014.97365,190.656713 C1073.00701,156.272749 1118.03945,104.280711 1118.03945,104.280711 Z M1118.03945,104.280711" id="Polygon 4" fill="#4A4A4A" transform="translate(1153.432268, 231.000000) rotate(-352.000000) translate(-1153.432268, -231.000000) "></path>
        </g>
    </g>
</svg>